<svg xmlns="http://www.w3.org/2000/svg" viewBox="0 0 900 650">
  <title>From the Trail</title>
  <desc>A winding trail through layered mountains and pine trees with a compass emblem.</desc>
  <defs>
    <linearGradient id="sky" x2="0" y2="1"><stop stop-color="#d8ccb7"/><stop offset="1" stop-color="#f5f5f5"/></linearGradient>
    <pattern id="lines" width="130" height="130" patternUnits="userSpaceOnUse"><path d="M-20 90Q45-20 145 45M-20 105Q45-5 145 60M-20 120Q45 10 145 75" fill="none" stroke="#876237" stroke-opacity=".12"/></pattern>
    <g id="pine"><path d="M0-115L-35-55H-22L-49-12H-30L-60 35H60L30-12H49L22-55H35Z"/><path d="M-7 30H7V65H-7Z"/></g>
  </defs>
  <path fill="url(#sky)" d="M0 0H900V650H0Z"/>
  <path fill="url(#lines)" d="M0 0H900V650H0Z"/>
  <circle cx="650" cy="180" r="67" fill="#9b7a54" opacity=".45"/>
  <path d="M0 360L170 155L290 305L410 195L605 390L755 260L900 360V650H0Z" fill="#9b7a54"/>
  <path d="M0 420L240 280L440 425L630 315L900 440V650H0Z" fill="#876237"/>
  <path d="M0 485Q190 370 385 455T900 455V650H0Z" fill="#6c162b"/>
  <path d="M450 650C600 550 540 535 443 507S393 458 464 437" fill="none" stroke="#d8ccb7" stroke-width="38"/>
  <path d="M0 650V525Q110 470 250 550L320 650ZM900 650V500Q755 475 600 650Z" fill="#3e2e18"/>
  <g fill="#3e2e18"><use href="#pine" transform="translate(100 450) scale(1.4)"/><use href="#pine" transform="translate(213 493) scale(.9)"/><use href="#pine" transform="translate(783 443) scale(1.5)"/><use href="#pine" transform="translate(678 473) scale(.9)"/></g>
  <g transform="translate(125 120)">
    <circle r="65" fill="#f5f5f5" stroke="#876237" stroke-width="4"/>
    <circle r="54" fill="none" stroke="#876237" stroke-width="2" stroke-dasharray="3 7"/>
    <path d="M0-42L12 0L0 42L-12 0Z" fill="#ba262d"/><path d="M0 0L12 0L0 42L-12 0Z" fill="#876237"/>
    <path d="M-42 0H-25M25 0H42" stroke="#876237" stroke-width="3"/>
  </g>
</svg>
