<svg xmlns="http://www.w3.org/2000/svg" viewBox="0 0 1440 110" preserveAspectRatio="none"><path fill="#876237" opacity=".35" d="M0 93 95 51 165 75 253 20 320 66 423 45 510 83 620 12 716 62 790 41 886 85 1030 28 1120 67 1260 22 1360 67 1440 44v66H0Z"/><path fill="#876237" opacity=".7" d="m0 102 120-35 90 26 120-65 65 45 80-18 95 43 114-57 109 57 127-70 97 60 66-11 130 24 100-59 127 36V110H0Z"/><path fill="#876237" d="M0 106 150 85 260 104 350 75 455 106 620 82 795 107 935 83 1100 102 1235 70 1350 103 1440 90v20H0Z"/><path fill="#876237" d="m18 72 -7 13h4l-10 16h6l-11 16h36l-11-16h6l-10-16h4z"/><path fill="#876237" d="m45 84 -7 13h4l-10 16h6l-11 16h36l-11-16h6l-10-16h4z"/><path fill="#876237" d="m79 66 -7 13h4l-10 16h6l-11 16h36l-11-16h6l-10-16h4z"/><path fill="#876237" d="m117 86 -7 13h4l-10 16h6l-11 16h36l-11-16h6l-10-16h4z"/><path fill="#876237" d="m230 77 -7 13h4l-10 16h6l-11 16h36l-11-16h6l-10-16h4z"/><path fill="#876237" d="m370 82 -7 13h4l-10 16h6l-11 16h36l-11-16h6l-10-16h4z"/><path fill="#876237" d="m404 70 -7 13h4l-10 16h6l-11 16h36l-11-16h6l-10-16h4z"/><path fill="#876237" d="m470 86 -7 13h4l-10 16h6l-11 16h36l-11-16h6l-10-16h4z"/><path fill="#876237" d="m558 73 -7 13h4l-10 16h6l-11 16h36l-11-16h6l-10-16h4z"/><path fill="#876237" d="m692 80 -7 13h4l-10 16h6l-11 16h36l-11-16h6l-10-16h4z"/><path fill="#876237" d="m725 65 -7 13h4l-10 16h6l-11 16h36l-11-16h6l-10-16h4z"/><path fill="#876237" d="m816 87 -7 13h4l-10 16h6l-11 16h36l-11-16h6l-10-16h4z"/><path fill="#876237" d="m878 78 -7 13h4l-10 16h6l-11 16h36l-11-16h6l-10-16h4z"/><path fill="#876237" d="m998 81 -7 13h4l-10 16h6l-11 16h36l-11-16h6l-10-16h4z"/><path fill="#876237" d="m1108 70 -7 13h4l-10 16h6l-11 16h36l-11-16h6l-10-16h4z"/><path fill="#876237" d="m1140 83 -7 13h4l-10 16h6l-11 16h36l-11-16h6l-10-16h4z"/><path fill="#876237" d="m1210 76 -7 13h4l-10 16h6l-11 16h36l-11-16h6l-10-16h4z"/><path fill="#876237" d="m1322 72 -7 13h4l-10 16h6l-11 16h36l-11-16h6l-10-16h4z"/><path fill="#876237" d="m1351 56 -7 13h4l-10 16h6l-11 16h36l-11-16h6l-10-16h4z"/><path fill="#876237" d="m1390 75 -7 13h4l-10 16h6l-11 16h36l-11-16h6l-10-16h4z"/><path fill="#876237" d="m1420 64 -7 13h4l-10 16h6l-11 16h36l-11-16h6l-10-16h4z"/></svg>